<?xml version="1.0" standalone="no"?>
<!DOCTYPE svg PUBLIC "-//W3C//DTD SVG 20010904//EN"
 "http://www.w3.org/TR/2001/REC-SVG-20010904/DTD/svg10.dtd">
<svg version="1.0" xmlns="http://www.w3.org/2000/svg"
 width="512.000000pt" height="512.000000pt" viewBox="0 0 512.000000 512.000000"
 preserveAspectRatio="xMidYMid meet">

<g transform="translate(0.000000,512.000000) scale(0.100000,-0.100000)"
fill="#000000" stroke="none">
<path d="M651 4444 c-12 -15 -21 -35 -21 -45 0 -54 93 -81 124 -37 21 30 20
50 -5 82 -13 17 -30 26 -49 26 -19 0 -36 -9 -49 -26z"/>
<path d="M1336 4378 c-13 -19 -16 -62 -16 -269 l0 -246 -97 -6 c-54 -3 -118
-13 -143 -22 -101 -36 -192 -130 -227 -235 -17 -52 -18 -129 -18 -1400 0
-1267 1 -1347 18 -1383 24 -52 83 -114 131 -140 l41 -22 1592 -3 c1584 -2
1593 -2 1613 18 25 25 26 61 1 91 l-19 24 -622 3 c-582 2 -621 4 -616 20 16
53 17 76 6 120 -20 85 -53 114 -236 202 -169 82 -188 98 -149 130 13 11 44 -1
185 -70 164 -80 171 -82 229 -78 82 6 134 41 168 115 21 45 24 64 19 107 -11
92 -39 120 -221 212 -88 45 -166 87 -172 93 -18 17 -16 39 5 50 13 7 57 -10
181 -70 142 -69 171 -79 218 -79 164 0 260 179 167 313 -25 36 -53 54 -196
127 -92 47 -170 91 -173 97 -7 20 6 43 25 43 9 0 86 -33 171 -74 85 -40 169
-77 186 -81 20 -4 53 -1 85 9 144 42 196 226 95 334 -12 13 -94 60 -182 104
-184 92 -197 104 -152 132 13 8 51 -7 178 -69 146 -72 168 -80 220 -80 145 1
240 147 183 283 -25 61 -55 83 -223 167 -138 68 -161 83 -161 103 0 44 29 37
192 -44 149 -74 163 -79 223 -79 55 0 70 5 107 31 113 79 121 247 15 328 -49
37 -560 284 -612 296 -49 11 -115 1 -165 -25 -65 -34 -103 -101 -405 -715
l-300 -611 -5 713 c-4 490 -9 723 -17 745 -24 67 -69 137 -118 179 -68 60
-137 85 -257 91 l-98 6 0 246 c0 207 -3 250 -16 269 -15 22 -16 22 -319 22
-303 0 -304 0 -319 -22z m522 -315 l2 -203 -205 0 -205 0 0 198 c0 109 3 202
7 206 4 3 95 5 202 4 l196 -3 3 -202z m368 -378 c30 -19 60 -49 78 -79 26 -41
30 -60 34 -137 l4 -89 -686 0 -686 0 0 73 c1 122 41 196 132 241 l53 27 511
-3 511 -3 49 -30z m1392 -474 c154 -77 282 -147 286 -156 17 -46 -13 -95 -59
-95 -13 0 -88 31 -165 70 -181 89 -206 97 -265 80 -84 -23 -136 -108 -122
-196 12 -70 46 -99 227 -189 144 -72 169 -88 174 -111 9 -35 -21 -78 -56 -82
-17 -2 -81 24 -178 73 -180 90 -222 99 -290 63 -64 -34 -92 -86 -87 -160 5
-91 30 -114 221 -207 126 -62 165 -86 174 -106 16 -35 -3 -76 -41 -89 -24 -9
-48 0 -196 73 -159 78 -173 83 -220 79 -57 -6 -112 -41 -136 -88 -19 -36 -19
-122 -1 -158 23 -44 45 -58 214 -142 138 -67 162 -83 168 -106 10 -38 -7 -77
-38 -88 -23 -8 -50 2 -195 72 -177 87 -212 95 -276 68 -71 -29 -117 -121 -97
-195 18 -67 44 -88 220 -176 92 -46 170 -91 174 -100 13 -34 5 -64 -20 -84
-15 -12 -32 -21 -39 -21 -7 0 -86 36 -174 80 -179 89 -219 97 -290 60 -94 -48
-116 -182 -43 -263 9 -11 92 -57 184 -103 140 -70 169 -88 174 -110 8 -33 -10
-72 -38 -83 -31 -11 -64 3 -355 148 -257 128 -273 140 -273 208 0 28 1017
2102 1048 2137 21 23 49 35 84 35 15 1 145 -58 306 -138z m-1278 -241 l0 -270
-685 0 -685 0 0 270 0 270 685 0 685 0 0 -270z m0 -771 l0 -361 -145 -297
c-79 -163 -147 -315 -151 -337 -9 -59 18 -140 62 -192 26 -31 63 -55 130 -88
52 -25 94 -48 94 -52 0 -16 -33 -53 -60 -67 -25 -13 -115 -15 -620 -15 -590 0
-592 0 -622 21 -60 43 -58 12 -58 919 l0 830 685 0 685 0 0 -361z m150 -1399
c11 -7 7 -10 -18 -10 -20 0 -31 4 -27 10 8 13 26 13 45 0z"/>
<path d="M1633 2339 c-27 -10 -55 -48 -138 -184 -85 -140 -146 -262 -175 -348
-57 -174 22 -358 188 -435 49 -23 70 -27 147 -27 82 0 97 3 157 33 75 37 133
96 169 170 31 65 37 181 14 253 -34 106 -137 296 -266 491 -27 42 -63 59 -96
47z m103 -315 c142 -245 167 -342 111 -437 -41 -69 -94 -101 -177 -105 -77 -5
-113 9 -173 67 -52 49 -73 120 -56 187 23 94 198 422 219 409 5 -3 39 -57 76
-121z"/>
<path d="M3041 4183 c-55 -20 -124 -88 -141 -137 -7 -21 -10 -68 -8 -106 4
-82 36 -137 105 -180 158 -100 364 12 363 199 -1 165 -165 281 -319 224z m138
-139 c30 -21 51 -71 44 -107 -12 -64 -109 -100 -159 -59 -54 43 -58 100 -10
148 39 39 85 45 125 18z"/>
<path d="M4097 1752 c-13 -15 -17 -39 -17 -115 0 -91 1 -96 26 -116 33 -26 58
-27 84 -1 17 17 20 33 20 118 0 83 -3 102 -18 115 -25 22 -75 21 -95 -1z"/>
<path d="M3827 1482 c-22 -25 -21 -75 1 -95 15 -13 39 -17 115 -17 84 0 100 3
117 20 26 26 25 51 -1 84 -20 25 -25 26 -118 26 -82 0 -101 -3 -114 -18z"/>
<path d="M4237 1482 c-22 -25 -21 -75 1 -95 15 -13 39 -17 115 -17 84 0 100 3
117 20 26 26 25 51 -1 84 -20 25 -25 26 -118 26 -82 0 -101 -3 -114 -18z"/>
<path d="M4130 1362 c-43 -14 -50 -32 -50 -133 0 -94 1 -98 27 -119 19 -15 35
-19 53 -15 42 10 50 31 50 135 0 80 -3 100 -17 112 -23 19 -44 26 -63 20z"/>
</g>
</svg>
