<svg width="684" height="494" viewBox="0 0 684 494" fill="none" xmlns="http://www.w3.org/2000/svg">
<g clip-path="url(#paint0_diamond_1_430_clip_path)" data-figma-skip-parse="true"><g transform="matrix(-0.318575 0.239887 -0.332152 -0.210059 334.504 254.113)"><rect x="0" y="0" width="1080.23" height="1103.39" fill="url(#paint0_diamond_1_430)" opacity="1" shape-rendering="crispEdges"/><rect x="0" y="0" width="1080.23" height="1103.39" transform="scale(1 -1)" fill="url(#paint0_diamond_1_430)" opacity="1" shape-rendering="crispEdges"/><rect x="0" y="0" width="1080.23" height="1103.39" transform="scale(-1 1)" fill="url(#paint0_diamond_1_430)" opacity="1" shape-rendering="crispEdges"/><rect x="0" y="0" width="1080.23" height="1103.39" transform="scale(-1)" fill="url(#paint0_diamond_1_430)" opacity="1" shape-rendering="crispEdges"/></g></g><path d="M0 15C0 6.71574 6.71573 0 15 0H669C677.284 0 684 6.71573 684 15V479C684 487.284 677.284 494 669 494H15C6.71571 494 0 487.284 0 479V15Z" data-figma-gradient-fill="{&#34;type&#34;:&#34;GRADIENT_DIAMOND&#34;,&#34;stops&#34;:[{&#34;color&#34;:{&#34;r&#34;:0.63529413938522339,&#34;g&#34;:0.83921569585800171,&#34;b&#34;:0.42745098471641541,&#34;a&#34;:0.40000000596046448},&#34;position&#34;:0.0},{&#34;color&#34;:{&#34;r&#34;:0.90980392694473267,&#34;g&#34;:0.94117647409439087,&#34;b&#34;:0.87843137979507446,&#34;a&#34;:1.0},&#34;position&#34;:0.95192307233810425}],&#34;stopsVar&#34;:[{&#34;color&#34;:{&#34;r&#34;:0.63529413938522339,&#34;g&#34;:0.83921569585800171,&#34;b&#34;:0.42745098471641541,&#34;a&#34;:0.40000000596046448},&#34;position&#34;:0.0},{&#34;color&#34;:{&#34;r&#34;:0.90980392694473267,&#34;g&#34;:0.94117647409439087,&#34;b&#34;:0.87843137979507446,&#34;a&#34;:1.0},&#34;position&#34;:0.95192307233810425}],&#34;transform&#34;:{&#34;m00&#34;:-637.15069580078125,&#34;m01&#34;:-664.30371093750,&#34;m02&#34;:985.23132324218750,&#34;m10&#34;:479.774902343750,&#34;m11&#34;:-420.11871337890625,&#34;m12&#34;:224.28451538085938},&#34;opacity&#34;:1.0,&#34;blendMode&#34;:&#34;NORMAL&#34;,&#34;visible&#34;:true}"/>
<defs>
<clipPath id="paint0_diamond_1_430_clip_path"><path d="M0 15C0 6.71574 6.71573 0 15 0H669C677.284 0 684 6.71573 684 15V479C684 487.284 677.284 494 669 494H15C6.71571 494 0 487.284 0 479V15Z"/></clipPath><linearGradient id="paint0_diamond_1_430" x1="0" y1="0" x2="500" y2="500" gradientUnits="userSpaceOnUse">
<stop stop-color="#A2D66D" stop-opacity="0.4"/>
<stop offset="0.951923" stop-color="#E8F0E0"/>
</linearGradient>
</defs>
</svg>
