<?xml version="1.0" encoding="UTF-8"?>
<svg version="1.1" xmlns="http://www.w3.org/2000/svg" width="500" height="500">
<path d="M0 0 C1.00458252 0.19601807 2.00916504 0.39203613 3.04418945 0.59399414 C15.06240768 3.15815609 26.10193482 8.12775132 37.1875 13.3125 C38.29714111 13.82804443 39.40678223 14.34358887 40.55004883 14.87475586 C50.92375057 19.71164088 61.23711167 24.67267431 71.5390625 29.66015625 C76.61938834 32.11956038 81.71147677 34.55284085 86.81005859 36.97412109 C107.87725687 46.99063288 128.72606419 57.37606291 149.0625 68.8125 C149.78099121 69.2146875 150.49948242 69.616875 151.23974609 70.03125 C160.70794579 75.36316365 169.80189739 81.21186093 178.875 87.1875 C209.27047723 107.20200673 240.55224248 123.36792432 274.74911499 135.89157104 C307.06251386 147.73612096 339.33211364 161.70867324 366.0625 183.8125 C366.61856934 184.26689453 367.17463867 184.72128906 367.74755859 185.18945312 C378.72488312 194.2799989 389.18499623 206.42498114 392.0625 220.8125 C393.35776112 236.100828 388.10676402 249.80079748 378.375 261.5625 C371.62693304 268.73473117 362.91334206 274.30471805 353.0625 275.8125 C352.39162354 275.92319824 351.72074707 276.03389648 351.02954102 276.14794922 C347.45688596 276.48485521 345.04533666 276.49242536 342.03222656 274.40795898 C339.9713067 272.38385991 338.10661169 270.27539808 336.25 268.0625 C334.85961286 266.49602764 333.46767347 264.93093173 332.07421875 263.3671875 C331.39665527 262.59213867 330.7190918 261.81708984 330.02099609 261.01855469 C327.30875714 257.96348224 324.46593741 255.05992983 321.5625 252.1875 C320.82918457 251.45829346 320.82918457 251.45829346 320.08105469 250.71435547 C316.86242084 247.53885795 313.55149359 244.50819289 310.109375 241.578125 C307.60535151 239.4181658 305.18252302 237.17762007 302.75 234.9375 C298.31888379 230.90093523 293.78820366 227.04141798 289.12109375 223.28125 C286.86915265 221.46359128 284.6348674 219.63161904 282.41015625 217.78125 C240.17182587 181.68751414 240.17182587 181.68751414 189.375 165.8125 C172.39482498 168.07652334 159.16739927 182.55600073 149.10546875 195.2890625 C147.72987697 197.11244645 146.37834047 198.9457182 145.0625 200.8125 C138.97948775 199.14980999 134.46093119 197.43085275 130.0625 192.8125 C127.38431961 185.01665886 132.79428029 175.37434566 136.15039062 168.29980469 C138.469244 163.56044649 140.88464535 158.87170734 143.3125 154.1875 C144.55708112 151.77413265 145.79844032 149.35926913 147.03265381 146.94058228 C147.79307393 145.45144438 148.55955131 143.96537853 149.33306885 142.48300171 C151.15043881 138.93467913 152.5464605 135.8210559 153.0625 131.8125 C149.41115552 135.20807492 146.94753648 138.37884668 144.64453125 142.79296875 C144.03456299 143.94925781 143.42459473 145.10554687 142.79614258 146.296875 C142.48222565 146.90208984 142.16830872 147.50730469 141.84487915 148.13085938 C140.86446545 150.02030208 139.87285107 151.90344592 138.87768555 153.78515625 C137.552224 156.29191673 136.22981787 158.80024018 134.91015625 161.31005859 C132.43663609 165.99889584 129.92617795 170.66551777 127.375 175.3125 C126.98997314 176.02817139 126.60494629 176.74384277 126.20825195 177.48120117 C124.21444968 181.1002746 122.2921065 184.1933679 119.0625 186.8125 C115.88875484 187.26589217 114.00594924 187.39808918 111.25 185.6875 C109.16364724 182.39325879 108.68326675 179.55048448 109.52197266 175.70678711 C111.56629829 168.83924135 114.33236569 162.44502595 117.3125 155.9375 C120.8865047 147.96741025 124.28423718 139.99055842 127.1875 131.75 C127.47012695 130.96061035 127.75275391 130.1712207 128.04394531 129.35791016 C129.70822882 124.49589954 130.5861004 119.93089085 131.0625 114.8125 C125.26925519 123.48974327 120.38363073 132.51147324 115.5625 141.75 C100.14092774 171.225935 100.14092774 171.225935 94.0625 173.8125 C90.875 174.3125 90.875 174.3125 88.0625 173.8125 C86.125 172.3125 86.125 172.3125 85.0625 169.8125 C85.4553294 163.82346158 86.88961899 158.9479411 89.1875 153.4375 C89.52007812 152.61749512 89.85265625 151.79749023 90.1953125 150.95263672 C92.65787916 144.96830047 95.27984569 139.05919396 97.9296875 133.15625 C98.26815704 132.39960052 98.60662659 131.64295105 98.95535278 130.8633728 C100.66601233 127.04051821 102.38851294 123.22390803 104.13330078 119.41650391 C104.77677663 117.98879124 105.41985992 116.56090156 106.0625 115.1328125 C106.36525848 114.48348755 106.66801697 113.8341626 106.97994995 113.16516113 C108.73922135 109.2182953 109.38048133 106.12429375 109.0625 101.8125 C105.91069104 104.71862993 103.8512554 107.59226428 101.77734375 111.3359375 C100.8656543 112.97622925 100.8656543 112.97622925 99.93554688 114.6496582 C99.29020669 115.8288524 98.64502785 117.00813492 98 118.1875 C97.33031479 119.39751057 96.66039042 120.60738881 95.99023438 121.81713867 C91.29468277 130.33893891 86.86740689 138.97605837 82.82788086 147.83154297 C79.87625003 154.04392611 76.32503288 158.68123356 70.0625 161.8125 C67.0625 162 67.0625 162 64.0625 161.8125 C62.0625 159.8125 62.0625 159.8125 61.5625 156.1875 C62.13278568 137.15796722 76.44107144 114.80090894 84.68896484 98.02563477 C86.32868272 94.63872686 87.53488358 91.54859467 88.0625 87.8125 C85.28683353 90.43437553 83.18353082 92.95393137 81.25 96.2421875 C80.73767822 97.10956543 80.22535645 97.97694336 79.69750977 98.87060547 C79.15795654 99.80018066 78.61840332 100.72975586 78.0625 101.6875 C77.496521 102.65187988 76.93054199 103.61625977 76.34741211 104.60986328 C71.7819299 112.44202126 67.4175009 120.37850119 63.19726562 128.40185547 C54.8721564 144.01879481 54.8721564 144.01879481 48.0625 146.8125 C45.4375 147.25 45.4375 147.25 43.0625 146.8125 C41.09299209 144.75968878 40.07397441 143.58890508 40.03125 140.69799805 C41.70945534 133.39672509 44.26243525 126.56567315 47.0625 119.625 C47.54436768 118.41062256 48.02623535 117.19624512 48.52270508 115.94506836 C52.14189395 106.86761308 55.99029297 97.89212496 60.06445312 89.0090332 C60.45955078 88.13077881 60.85464844 87.25252441 61.26171875 86.34765625 C61.61065186 85.588479 61.95958496 84.82930176 62.3190918 84.04711914 C63.15849027 81.52396177 63.19664625 79.45439537 63.0625 76.8125 C60.66231894 80.83074936 58.26717966 84.85198332 55.875 88.875 C55.51513 89.47986237 55.15526001 90.08472473 54.78448486 90.70791626 C49.16977755 100.15389619 43.68831011 109.66435577 38.40161133 119.29907227 C30.79823867 132.98867422 30.79823867 132.98867422 25.0625 136.8125 C22 137.0625 22 137.0625 19.0625 136.8125 C17.0625 134.8125 17.0625 134.8125 16.74609375 131.2421875 C16.88411903 126.397174 18.32787978 122.39803306 20.125 117.9375 C20.46354004 117.0705249 20.80208008 116.2035498 21.15087891 115.31030273 C25.44097605 104.53370343 30.21192944 93.94792367 34.95727539 83.36572266 C35.27862961 82.6471962 35.59998383 81.92866974 35.93107605 81.18836975 C36.53587556 79.8376091 37.14313685 78.48794679 37.75337219 77.13963318 C39.41825883 73.42171914 40.84041982 69.69832726 42.0625 65.8125 C35.92159957 75.42863669 29.85233386 85.08002095 24 94.875 C23.50846436 95.69508545 23.01692871 96.5151709 22.51049805 97.36010742 C20.00068994 101.55191137 17.50958414 105.7536723 15.0390625 109.96875 C14.06799698 111.60433807 13.0966539 113.2397614 12.125 114.875 C11.68857178 115.63111572 11.25214355 116.38723145 10.80249023 117.16625977 C8.39368169 121.19362431 6.51525959 123.86395462 2.0625 125.8125 C-0.77573969 126.21796281 -2.23927568 126.19772721 -4.75 124.8125 C-6.69005073 121.54504614 -6.44959121 118.45861689 -5.9375 114.8125 C-4.47196415 109.948526 -2.58874718 105.26770491 -0.6875 100.5625 C-0.14868343 99.2013795 0.38939215 97.83996545 0.92675781 96.47827148 C6.35415416 82.80429799 12.15615012 69.28537152 18.0625 55.8125 C15.02097953 59.53100659 12.58267217 63.27981518 10.3125 67.5 C4.256176 78.5194583 -2.45397346 89.15382493 -9.10693359 99.81933594 C-10.29806058 101.76695089 -11.45917162 103.73335171 -12.58447266 105.71972656 C-13.08897949 106.60885742 -13.59348633 107.49798828 -14.11328125 108.4140625 C-14.54165283 109.19346191 -14.97002441 109.97286133 -15.41137695 110.77587891 C-17.3044655 113.30221784 -19.09487493 114.46403702 -21.9375 115.8125 C-25.6875 115.625 -25.6875 115.625 -28.9375 114.8125 C-30.46131406 111.76487187 -30.44569727 109.10906197 -29.9375 105.8125 C-26.6661078 96.57674087 -22.17240973 87.73450263 -18 78.875 C-17.3988437 77.59451596 -16.79793149 76.3139173 -16.19726562 75.03320312 C-15.75318863 74.08663345 -15.75318863 74.08663345 -15.30014038 73.12094116 C-14.71084585 71.86400985 -14.12199276 70.60687146 -13.53359985 69.34951782 C-12.08546846 66.2553873 -10.63019648 63.16509897 -9.15966797 60.08154297 C-8.61068848 58.91896973 -8.06170898 57.75639648 -7.49609375 56.55859375 C-7.00294678 55.52275146 -6.5097998 54.48690918 -6.00170898 53.41967773 C-4.74854316 50.81891471 -4.74854316 50.81891471 -4.9375 47.8125 C-5.9275 47.8125 -6.9175 47.8125 -7.9375 47.8125 C-8.35257812 48.6890625 -8.76765625 49.565625 -9.1953125 50.46875 C-14.92034699 62.33437146 -21.49739187 73.6656138 -28.24511719 84.97460938 C-29.31871392 86.77488179 -30.38764566 88.57795104 -31.45019531 90.38476562 C-32.76545421 92.61933091 -34.09769921 94.84258779 -35.4375 97.0625 C-35.80987793 97.69929688 -36.18225586 98.33609375 -36.56591797 98.9921875 C-39.09086162 103.09903719 -41.69552864 105.52705286 -45.9375 107.8125 C-49.1875 107.75 -49.1875 107.75 -51.9375 106.8125 C-54.20831201 103.40628198 -54.05467393 101.98610132 -53.43856812 98.05169678 C-52.55484698 94.10248217 -51.07633387 90.4346731 -49.55078125 86.6953125 C-49.21128952 85.83928436 -48.87179779 84.98325623 -48.52201843 84.10128784 C-47.4401334 81.37642231 -46.34605134 78.6566947 -45.25 75.9375 C-43.82298871 72.38014395 -42.40222083 68.82038456 -40.98828125 65.2578125 C-40.64362823 64.38989075 -40.29897522 63.52196899 -39.94387817 62.62774658 C-36.60594422 54.13145784 -33.71380703 45.50614771 -30.9375 36.8125 C-35.38149593 40.16696774 -37.64521381 43.36137837 -39.9375 48.375 C-40.30633301 49.16277832 -40.67516602 49.95055664 -41.05517578 50.76220703 C-45.79384458 61.22652681 -49.61925887 72.0868909 -53.5078125 82.88891602 C-53.91436569 84.01132942 -53.91436569 84.01132942 -54.32913208 85.15641785 C-54.83938387 86.56761783 -55.3451167 87.98046335 -55.84542847 89.3952179 C-57.20035584 93.14184072 -58.76261689 96.4727588 -60.9375 99.8125 C-66.58086328 99.4298991 -69.83665226 99.03396091 -73.9375 94.8125 C-77.98152561 88.13821383 -76.17335607 80.07236354 -74.43359375 72.87890625 C-73.7642146 70.37305086 -73.07733972 67.8718177 -72.375 65.375 C-72.0076368 64.04220336 -71.64045132 62.70935773 -71.2734375 61.37646484 C-57.75189283 12.7689386 -57.75189283 12.7689386 -41.8125 1.3125 C-29.05450614 -5.34384462 -13.56437021 -2.67686878 0 0 Z M-44.17578125 14.58984375 C-56.24424853 31.03370112 -60.86698073 52.43574501 -65.9375 71.8125 C-66.14648926 72.57546387 -66.35547852 73.33842773 -66.57080078 74.12451172 C-67.58798867 77.93246884 -68.17198366 81.37108836 -68.0625 85.3125 C-68.04445313 86.1684375 -68.02640625 87.024375 -68.0078125 87.90625 C-67.98460937 88.5353125 -67.96140625 89.164375 -67.9375 89.8125 C-66.9475 90.1425 -65.9575 90.4725 -64.9375 90.8125 C-64.63801956 90.01895615 -64.63801956 90.01895615 -64.33248901 89.2093811 C-62.23453492 83.65613955 -60.12302378 78.10818734 -58.00390625 72.56298828 C-57.21695605 70.49853409 -56.43336095 68.43279748 -55.65332031 66.36572266 C-54.52529022 63.37831816 -53.38488885 60.39588122 -52.2421875 57.4140625 C-51.90130096 56.50322906 -51.56041443 55.59239563 -51.209198 54.65396118 C-47.75527249 45.71014535 -43.1302022 35.27430146 -34.9375 29.8125 C-31.4375 29.4375 -31.4375 29.4375 -27.9375 29.8125 C-25.09399624 32.18208646 -24.34519572 34.99719873 -23.87890625 38.61987305 C-24.00846089 43.46791557 -26.14790899 47.96653514 -27.875 52.4375 C-28.28089355 53.52820801 -28.68678711 54.61891602 -29.10498047 55.74267578 C-31.13946437 61.18612416 -33.24160389 66.6025993 -35.35546875 72.015625 C-35.72744385 72.97388184 -36.09941895 73.93213867 -36.48266602 74.91943359 C-37.19040541 76.73366585 -37.90800968 78.54408753 -38.63647461 80.35009766 C-38.95495361 81.1601123 -39.27343262 81.97012695 -39.6015625 82.8046875 C-39.88467285 83.50964355 -40.1677832 84.21459961 -40.45947266 84.94091797 C-41.16973534 87.01772988 -41.16973534 87.01772988 -39.9375 89.8125 C-38.02519177 86.52852376 -36.11652236 83.24245817 -34.21133423 79.9543457 C-33.52995063 78.77847206 -32.84812832 77.60285253 -32.16586304 76.42749023 C-28.4875824 70.08537866 -24.85908813 63.72863739 -21.41015625 57.2578125 C-20.87422852 56.25314941 -20.33830078 55.24848633 -19.78613281 54.21337891 C-18.77932711 52.31209706 -17.78220187 50.40565023 -16.79589844 48.49365234 C-16.34375977 47.63980957 -15.89162109 46.7859668 -15.42578125 45.90625 C-15.03946533 45.16052734 -14.65314941 44.41480469 -14.25512695 43.64648438 C-12.68841489 41.46580233 -11.43059466 40.75607645 -8.9375 39.8125 C-5.01717553 39.31203305 -3.45047739 39.47051507 -0.125 41.6875 C2.40028673 44.14063568 2.98355401 45.00465132 3.32348633 48.4831543 C3.00905267 52.49431594 1.64976655 55.53729984 -0.11328125 59.08203125 C-0.4391069 59.76246994 -0.76493256 60.44290863 -1.10063171 61.14396667 C-2.13953591 63.30976524 -3.19365475 65.46766159 -4.25 67.625 C-5.62812614 70.46149113 -6.99909872 73.30130825 -8.36328125 76.14453125 C-8.68773224 76.81968781 -9.01218323 77.49484436 -9.34646606 78.19046021 C-11.61269491 82.96857175 -13.4516056 87.72857778 -14.9375 92.8125 C-12.22767686 90.36133947 -10.51035078 87.67336065 -8.64453125 84.54296875 C-8.01772461 83.49512207 -7.39091797 82.44727539 -6.74511719 81.36767578 C-6.08672852 80.25634277 -5.42833984 79.14500977 -4.75 78 C-4.07743164 76.87319824 -3.40486328 75.74639648 -2.71191406 74.58544922 C1.47990399 67.54404582 5.59293963 60.46670193 9.546875 53.2890625 C11.49838154 50.10026058 12.90952778 48.23727924 16.4375 46.9375 C19.88139713 46.7735049 21.34445751 47.75560298 24.0625 49.8125 C26.0625 52.8125 26.0625 52.8125 25.82421875 55.14868164 C25.00725229 58.00570762 24.00899408 60.6864564 22.875 63.43359375 C22.42737305 64.52414063 21.97974609 65.6146875 21.51855469 66.73828125 C21.03805664 67.89714844 20.55755859 69.05601562 20.0625 70.25 C19.33015137 72.03664062 19.33015137 72.03664062 18.58300781 73.859375 C16.18216393 79.71113985 13.75567524 85.55126501 11.296875 91.37890625 C10.87664062 92.3831665 10.45640625 93.38742676 10.0234375 94.42211914 C9.2296775 96.31674105 8.42786637 98.20801445 7.6171875 100.09545898 C7.26398438 100.94052002 6.91078125 101.78558105 6.546875 102.65625 C6.23459961 103.39037109 5.92232422 104.12449219 5.60058594 104.88085938 C4.81538606 107.00316764 4.81538606 107.00316764 6.0625 109.8125 C6.51987549 109.05855957 6.97725098 108.30461914 7.44848633 107.52783203 C11.54128767 100.7819753 15.63578012 94.03715003 19.73284912 87.29388428 C22.00204337 83.5589661 24.26911747 79.82277138 26.53515625 76.0859375 C27.50244163 74.49469285 28.46987564 72.90353854 29.4375 71.3125 C29.8703833 70.59723145 30.3032666 69.88196289 30.74926758 69.14501953 C32.35959016 66.50192306 33.97244321 63.93047833 35.8515625 61.46875 C37.25923584 59.88536861 37.25923584 59.88536861 37.0625 57.8125 C38.49660368 57.56295995 39.93510072 57.33857358 41.375 57.125 C42.17550781 56.99738281 42.97601563 56.86976563 43.80078125 56.73828125 C46.0625 56.8125 46.0625 56.8125 47.79296875 58.16796875 C50.52529597 61.7073834 50.40441998 64.38530238 50.0625 68.8125 C49.05361012 71.72013091 47.66280981 74.39494413 46.25 77.125 C42.23065687 85.2525297 38.50453572 93.47633578 34.9375 101.8125 C34.44016357 102.95243408 33.94282715 104.09236816 33.43041992 105.2668457 C32.97642822 106.33378662 32.52243652 107.40072754 32.0546875 108.5 C31.64589355 109.45261719 31.23709961 110.40523438 30.81591797 111.38671875 C29.77229791 113.914205 29.77229791 113.914205 31.0625 116.8125 C31.3527002 116.30203125 31.64290039 115.7915625 31.94189453 115.265625 C34.44687465 110.86263696 36.95958597 106.46421668 39.48046875 102.0703125 C41.93963426 97.78396863 44.37537405 93.48521129 46.80078125 89.1796875 C48.03336172 87.01534448 49.26642405 84.8512758 50.5 82.6875 C51.07830566 81.65109375 51.65661133 80.6146875 52.25244141 79.546875 C53.08461182 78.09667969 53.08461182 78.09667969 53.93359375 76.6171875 C54.41755615 75.76108887 54.90151855 74.90499023 55.40014648 74.02294922 C57.36284256 71.41313129 59.1185219 70.20127056 62.0625 68.8125 C65.75 68.875 65.75 68.875 69.0625 69.8125 C71.77017161 73.96198432 71.76098465 78.02662001 71.0625 82.8125 C69.70834816 86.90183514 67.90838377 90.73705449 66.0625 94.625 C65.05478684 96.83088869 64.04961211 99.03793863 63.046875 101.24609375 C62.54478516 102.3429248 62.04269531 103.43975586 61.52539062 104.56982422 C59.34651408 109.39957025 57.30323047 114.27766955 55.3125 119.1875 C54.79236328 120.43430542 54.79236328 120.43430542 54.26171875 121.70629883 C52.31585887 126.16274362 52.31585887 126.16274362 53.0625 130.8125 C53.38822998 130.19544189 53.71395996 129.57838379 54.04956055 128.94262695 C60.12449151 117.47623449 66.31151844 106.1099825 73.125 95.0625 C73.66020264 94.18891846 74.19540527 93.31533691 74.74682617 92.4152832 C80.91445475 82.54374945 80.91445475 82.54374945 86 80.8125 C89.0625 80.8125 89.0625 80.8125 91.8125 82.375 C94.56348844 85.35523747 95.40133805 86.7825605 96.0625 90.8125 C94.96694447 94.49342189 93.22465386 97.82761344 91.5 101.25 C90.47565003 103.37789536 89.4563756 105.50823931 88.44140625 107.640625 C87.89500488 108.78466797 87.34860352 109.92871094 86.78564453 111.10742188 C83.95105148 117.136331 81.37934956 123.28062495 78.80691528 129.42483521 C77.94837213 131.47404984 77.08257143 133.52009786 76.21655273 135.56616211 C75.68284441 136.83943527 75.14969589 138.11294328 74.6171875 139.38671875 C74.14780762 140.50651123 73.67842773 141.62630371 73.19482422 142.7800293 C72.18806086 145.4762362 71.5221153 147.97864527 71.0625 150.8125 C73.51215601 148.59417596 74.88557434 146.49014676 76.3046875 143.515625 C76.72468018 142.65018066 77.14467285 141.78473633 77.57739258 140.89306641 C78.02622803 139.95897949 78.47506348 139.02489258 78.9375 138.0625 C83.02778287 129.72341234 87.31706035 121.53084065 91.875 113.4375 C92.4014209 112.49422852 92.9278418 111.55095703 93.47021484 110.57910156 C101.99297812 95.57495543 101.99297812 95.57495543 107.625 93.5 C111.0625 93.8125 111.0625 93.8125 113.9375 95.6875 C116.69217607 99.73849422 117.20451662 102.9491553 117.0625 107.8125 C116.23952235 111.06853539 114.88281527 113.97622453 113.4375 117 C112.61411424 118.82400707 111.79122992 120.64824054 110.96875 122.47265625 C110.28232422 123.96563232 110.28232422 123.96563232 109.58203125 125.48876953 C106.94030916 131.26711216 104.37933179 137.08045264 101.83282471 142.90127563 C100.94502782 144.92037959 100.04414729 146.93327931 99.14208984 148.94604492 C98.59159108 150.19556683 98.04159968 151.44531243 97.4921875 152.6953125 C96.99960449 153.80277832 96.50702148 154.91024414 95.99951172 156.05126953 C94.73945448 158.8505506 94.73945448 158.8505506 96.0625 161.8125 C96.37364746 161.21002441 96.68479492 160.60754883 97.00537109 159.98681641 C122.66457039 110.37275363 122.66457039 110.37275363 130.0625 106.8125 C133.76278236 107.03016367 135.41741041 107.16741041 138.0625 109.8125 C141.08821894 123.59633071 133.09405196 138.20232003 127.86035156 150.58300781 C127.38694336 151.70416992 126.91353516 152.82533203 126.42578125 153.98046875 C125.99563721 154.98360107 125.56549316 155.9867334 125.12231445 157.02026367 C124.13305358 159.62661628 123.51531923 162.06765606 123.0625 164.8125 C125.50584589 162.59893036 126.88163183 160.49906451 128.296875 157.53125 C128.70268799 156.69408447 129.10850098 155.85691895 129.52661133 154.99438477 C129.95095459 154.10936279 130.37529785 153.22434082 130.8125 152.3125 C141.6378285 130.22946166 141.6378285 130.22946166 150.0625 124.4375 C152.84387759 123.5683195 154.34407225 123.76695087 157.0625 124.8125 C160.03454028 128.19447687 160.41134337 131.19545649 160.33480835 135.62710571 C159.85342264 139.49043782 158.12103203 142.61534129 156.30078125 146.01171875 C155.91311081 146.76862503 155.52544037 147.52553131 155.12602234 148.30537415 C153.89075049 150.71173281 152.63440122 153.10619476 151.375 155.5 C143.07838698 170.67597286 143.07838698 170.67597286 137.0625 186.8125 C137.3925 187.8025 137.7225 188.7925 138.0625 189.8125 C139.7125 190.1425 141.3625 190.4725 143.0625 190.8125 C143.6915625 190.02746094 144.320625 189.24242187 144.96875 188.43359375 C149.92607482 182.31923516 154.85803368 176.71276218 161.0625 171.8125 C161.67351562 171.30332031 162.28453125 170.79414063 162.9140625 170.26953125 C172.76652927 162.38350332 183.34912905 157.67544717 196.04931641 158.54736328 C207.93537465 160.11275975 219.6258803 167.27718397 230.0625 172.8125 C230.68527832 173.13524902 231.30805664 173.45799805 231.94970703 173.79052734 C257.14381687 186.89831821 279.77865792 205.15422374 301.0625 223.8125 C301.81789063 224.46734375 302.57328125 225.1221875 303.3515625 225.796875 C307.78268704 229.64542142 312.14621288 233.56824198 316.5 237.50390625 C318.15945289 238.99893164 319.82572452 240.48643703 321.5 241.96484375 C326.23620072 246.16214984 330.82618879 250.47612814 335.3125 254.9375 C336.0873877 255.70223633 336.0873877 255.70223633 336.87792969 256.48242188 C339.60569806 259.21196038 341.96437684 261.97871553 344.1875 265.125 C346.69611589 267.98177389 346.69611589 267.98177389 349.359375 268.1484375 C358.96248132 267.59553138 366.64230089 262.74734433 373.0625 255.8125 C380.36214609 246.25308567 384.95094993 236.24924978 384.50390625 224.078125 C382.43356181 208.76124046 370.59517713 196.60613477 358.77539062 187.54003906 C358.14826172 187.07307617 357.52113281 186.60611328 356.875 186.125 C355.8550293 185.36461426 355.8550293 185.36461426 354.81445312 184.58886719 C342.13554334 175.32789933 328.39345061 167.50684234 314.19873047 160.82080078 C312.72785545 160.12654777 311.26092566 159.42389455 309.79736328 158.71435547 C297.70278397 152.85878803 285.3607288 147.97587697 272.75 143.375 C238.21469007 130.75693953 206.10755272 114.68592667 175.59985352 94.15649414 C157.36696237 81.92626643 137.93019511 71.70889507 118.45703125 61.62109375 C114.13165355 59.3778334 109.84265888 57.07813981 105.5625 54.75 C97.71764749 50.52249009 89.66113257 46.74333738 81.609375 42.9296875 C76.93823655 40.71455278 72.28480411 38.46617826 67.640625 36.1953125 C34.38095575 19.27784207 34.38095575 19.27784207 -0.9375 7.8125 C-1.86175781 7.57144531 -2.78601563 7.33039063 -3.73828125 7.08203125 C-18.0399601 3.76795637 -34.42920831 2.49592864 -44.17578125 14.58984375 Z M-41.9375 89.8125 C-40.9375 91.8125 -40.9375 91.8125 -40.9375 91.8125 Z M-15.9375 92.8125 C-14.9375 94.8125 -14.9375 94.8125 -14.9375 94.8125 Z M-16.9375 94.8125 C-15.9375 96.8125 -15.9375 96.8125 -15.9375 96.8125 Z M4.0625 109.8125 C5.0625 111.8125 5.0625 111.8125 5.0625 111.8125 Z M29.0625 116.8125 C30.0625 118.8125 30.0625 118.8125 30.0625 118.8125 Z M94.0625 161.8125 C95.0625 163.8125 95.0625 163.8125 95.0625 163.8125 Z M122.0625 164.8125 C123.0625 166.8125 123.0625 166.8125 123.0625 166.8125 Z M121.0625 166.8125 C122.0625 168.8125 122.0625 168.8125 122.0625 168.8125 Z M120.0625 168.8125 C121.0625 170.8125 121.0625 170.8125 121.0625 170.8125 Z M119.0625 170.8125 C120.0625 172.8125 120.0625 172.8125 120.0625 172.8125 Z " fill="#010101" transform="translate(91.9375,113.1875)"/>
<path d="M0 0 C5.38491561 2.80063692 10.01537496 7.58128114 11.9375 13.34765625 C12.44473134 19.56124018 12.72736129 25.13659698 8.9375 30.34765625 C3.83476273 35.46102422 0.15439371 38.451127 -7.25 38.72265625 C-13.07804063 38.66869291 -16.68443606 37.13576831 -21.0625 33.34765625 C-26.19803235 27.80668714 -27.53387716 23.55885931 -27.375 16.1015625 C-26.75630749 10.64933472 -24.15809086 7.12139698 -20.0625 3.53515625 C-13.86423244 -0.98441385 -7.54701018 -2.38702784 0 0 Z M-17.4375 11.47265625 C-19.7028207 15.48053133 -20.00384471 18.84660465 -19.0625 23.34765625 C-17.33517979 26.41349028 -15.25794885 28.74993183 -12.0625 30.34765625 C-8.31254517 30.87264993 -4.65055413 31.15338477 -1.20703125 29.40625 C2.02059216 26.86399847 4.05779445 24.35520375 4.9375 20.34765625 C4.66396346 15.97107161 3.71049697 12.76768584 0.9375 9.34765625 C-6.57206355 5.45877513 -11.03548441 5.74453704 -17.4375 11.47265625 Z " fill="#010101" transform="translate(446.0625,313.65234375)"/>
</svg>
